<?xml version="1.0" standalone="no"?>
<!DOCTYPE svg PUBLIC "-//W3C//DTD SVG 20010904//EN"
 "http://www.w3.org/TR/2001/REC-SVG-20010904/DTD/svg10.dtd">
<svg version="1.0" xmlns="http://www.w3.org/2000/svg"
 width="512.000000pt" height="512.000000pt" viewBox="0 0 512.000000 512.000000"
 preserveAspectRatio="xMidYMid meet">
<metadata>
Created by potrace 1.11, written by Peter Selinger 2001-2013
</metadata>
<g transform="translate(0.000000,512.000000) scale(0.100000,-0.100000)"
fill="#000000" stroke="none">
<path d="M2322 4942 c-12 -2 -22 -9 -21 -15 1 -7 1 -42 0 -78 l-1 -67 -37 -7
c-21 -4 -49 -9 -63 -12 -50 -9 -136 -36 -173 -55 -21 -10 -43 -16 -49 -12 -6
4 -8 3 -4 -4 3 -6 -12 -22 -36 -36 -24 -14 -39 -26 -34 -26 6 0 -4 -15 -21
-32 -28 -31 -64 -109 -77 -169 -8 -35 -8 -157 -1 -194 24 -121 76 -199 190
-280 67 -48 115 -71 290 -140 66 -26 122 -50 125 -54 3 -3 14 -8 25 -9 29 -6
76 -31 104 -56 34 -31 44 -63 31 -102 -37 -111 -383 -81 -697 62 l-72 33 -3
-94 c-2 -51 -2 -141 0 -198 l3 -105 69 -26 c65 -24 168 -53 217 -62 13 -2 34
-6 48 -8 14 -3 56 -8 93 -12 37 -3 69 -8 70 -9 2 -2 5 -52 5 -112 l2 -108 120
0 120 0 2 95 c1 52 2 105 2 116 1 18 10 23 54 29 62 10 50 7 115 29 80 27 142
65 198 121 91 91 125 185 121 333 -3 76 -9 109 -27 151 -13 29 -23 59 -23 67
0 7 -3 11 -7 9 -4 -2 -23 16 -43 40 -53 63 -180 137 -347 201 -274 106 -314
129 -326 190 -8 40 24 78 77 92 39 10 187 8 239 -3 14 -3 34 -7 45 -9 34 -7
158 -48 200 -67 22 -10 45 -19 50 -19 6 0 18 21 29 48 10 26 29 70 41 97 13
28 35 81 50 119 25 66 25 70 8 80 -10 6 -20 11 -23 11 -3 1 -48 15 -100 32
-52 17 -115 34 -140 38 -24 4 -48 9 -52 11 -4 2 -35 7 -70 10 -34 3 -64 7 -66
9 -2 2 -4 37 -4 79 0 75 -1 76 -27 77 -86 3 -179 4 -199 1z"/>
<path d="M3801 4364 c18 -19 119 -121 223 -225 l190 -190 -894 -894 -895 -895
-342 342 c-188 188 -339 346 -336 351 3 6 1 7 -4 4 -6 -4 -35 19 -66 51 -30
31 -84 85 -119 119 l-63 63 -629 -629 -628 -628 112 -112 c126 -127 110 -123
189 -39 18 21 39 35 45 31 6 -3 8 -2 4 2 -10 11 163 185 177 178 5 -4 7 -2 2
2 -9 11 584 605 597 598 5 -3 6 -2 3 4 -8 12 87 105 98 95 5 -4 5 -2 2 4 -4 6
3 20 15 30 20 18 21 18 15 1 -4 -11 -3 -16 4 -12 5 4 214 -198 464 -449 l455
-456 1006 1002 c553 552 1007 1005 1010 1007 8 8 286 -278 279 -288 -3 -6 0
-9 8 -6 8 4 32 -15 58 -42 25 -26 57 -59 72 -72 l27 -24 0 556 0 557 -557 0
-557 0 35 -36z"/>
<path d="M4337 3511 l-97 -99 0 -1519 c0 -836 3 -1535 7 -1553 8 -43 70 -105
113 -113 42 -9 358 -9 400 0 43 8 105 70 114 114 5 25 8 1380 6 2765 l0 62
-220 221 c-122 121 -222 221 -223 221 -1 0 -46 -45 -100 -99z"/>
<path d="M3753 2927 l-313 -312 0 -1133 c0 -1028 1 -1137 16 -1168 17 -35 66
-83 87 -85 7 -1 23 -3 37 -5 55 -6 347 -5 375 2 43 10 90 47 108 86 19 41 18
-68 17 1621 0 719 -3 1307 -7 1307 -5 0 -149 -141 -320 -313z"/>
<path d="M1262 2296 l-222 -224 0 -860 c0 -492 4 -871 9 -884 16 -43 61 -87
99 -98 43 -11 363 -15 407 -4 43 10 90 47 108 87 18 36 18 47 17 1568 l0 457
-60 57 c-32 32 -56 63 -53 68 3 6 2 7 -4 4 -5 -3 -22 7 -37 24 -15 16 -31 29
-34 29 -4 0 -107 -101 -230 -224z"/>
<path d="M2957 2132 l-317 -317 0 -725 c0 -399 3 -736 7 -750 9 -39 52 -91 87
-105 22 -9 90 -14 223 -15 216 -1 248 7 295 72 l23 33 3 760 c1 418 1 896 0
1063 l-3 302 -318 -318z"/>
<path d="M1838 1858 c-2 -172 -1 -588 2 -925 l5 -611 31 -39 c47 -59 78 -65
305 -61 195 3 196 3 231 30 19 15 42 42 51 60 18 39 18 40 17 827 l0 515 -30
-29 -30 -29 -287 287 c-158 158 -288 287 -290 287 -1 0 -4 -141 -5 -312z"/>
<path d="M689 1721 c-102 -102 -196 -195 -207 -205 -22 -19 -22 -19 -87 45
-36 35 -65 70 -65 78 0 8 -3 11 -7 7 -4 -3 -24 10 -45 31 l-39 38 3 -695 c3
-661 4 -696 22 -723 10 -15 33 -38 50 -50 30 -21 40 -22 247 -22 l216 0 35 27
c72 55 68 8 68 874 0 427 -1 778 -2 779 -2 1 -87 -81 -189 -184z"/>
</g>
</svg>
